<svg id="Warstwa_1" data-name="Warstwa 1" xmlns="http://www.w3.org/2000/svg" viewBox="0 0 192 30"><defs><style>.cls-1{isolation:isolate;}.cls-2{fill:#fff;}</style></defs><g id="kacperwalter." class="cls-1"><g class="cls-1"><path class="cls-2" d="M4.05,18.28v4.45h-4V.4h4V12.89L9.12,7.27h5.46l-5.76,6,6.09,9.42h-5L6,16.22Z"/><path class="cls-2" d="M27.48,22.73a6.2,6.2,0,0,1-.39-1.45,5.47,5.47,0,0,1-1.95,1.28,7.55,7.55,0,0,1-2.79.46A8.73,8.73,0,0,1,20,22.71a6.4,6.4,0,0,1-2-.93,4.66,4.66,0,0,1-1.4-1.56,4.47,4.47,0,0,1-.52-2.2,4.15,4.15,0,0,1,.51-2.15A4,4,0,0,1,18,14.49a6.69,6.69,0,0,1,2-.78,19.37,19.37,0,0,1,2.43-.37c.64-.07,1.23-.13,1.77-.21a8.21,8.21,0,0,0,1.39-.32,2.43,2.43,0,0,0,.92-.5,1,1,0,0,0,.33-.78,1.25,1.25,0,0,0-.74-1A4.1,4.1,0,0,0,24,10.06a4.31,4.31,0,0,0-1.05.13,4.61,4.61,0,0,0-1,.34,3,3,0,0,0-.81.57,1.93,1.93,0,0,0-.49.83c-.2,0-.47-.1-.8-.19s-.67-.16-1-.25l-1-.27L16.89,11a4.92,4.92,0,0,1,.94-1.64A6.61,6.61,0,0,1,19.38,8a7.49,7.49,0,0,1,2-.85,9.77,9.77,0,0,1,2.49-.3,10.34,10.34,0,0,1,2.67.3A6.39,6.39,0,0,1,28.44,8a4.92,4.92,0,0,1,1.2,1.09,5.15,5.15,0,0,1,.67,1.19,4.67,4.67,0,0,1,.29,1.09,7.64,7.64,0,0,1,.06.82v8a6.66,6.66,0,0,0,.15,1.31,10.63,10.63,0,0,0,.3,1.21ZM27,15.28a4.66,4.66,0,0,1-1.58.64,21,21,0,0,1-2.19.35,8.13,8.13,0,0,0-2.32.53A1.29,1.29,0,0,0,20,18.05a1.2,1.2,0,0,0,.7,1.06,3.88,3.88,0,0,0,1.92.41,8.29,8.29,0,0,0,1.69-.16,4.12,4.12,0,0,0,1.37-.49,2.75,2.75,0,0,0,.92-.87A2.33,2.33,0,0,0,27,16.73Z"/><path class="cls-2" d="M48.78,18.47A7,7,0,0,1,46,21.89a8.64,8.64,0,0,1-7.63.57,7.75,7.75,0,0,1-2.52-1.73,8,8,0,0,1-1.65-2.56,8.25,8.25,0,0,1-.6-3.15,8.39,8.39,0,0,1,.6-3.17,8,8,0,0,1,1.65-2.58A7.77,7.77,0,0,1,38.4,7.53a8.49,8.49,0,0,1,7.65.6,7,7,0,0,1,2.73,3.5l-.92.19L46.8,12l-1.07.21-.94.2a3.81,3.81,0,0,0-1.28-1.35,3.44,3.44,0,0,0-3.43-.21,4,4,0,0,0-1.26,1A4.71,4.71,0,0,0,38,13.29a4.9,4.9,0,0,0-.31,1.76A4.67,4.67,0,0,0,38,16.76a4.73,4.73,0,0,0,.86,1.42,3.91,3.91,0,0,0,1.26,1,3.49,3.49,0,0,0,1.53.34,3.4,3.4,0,0,0,1.9-.54,3.49,3.49,0,0,0,1.28-1.31Z"/><path class="cls-2" d="M67.65,15a8.61,8.61,0,0,1-.59,3.19,8.4,8.4,0,0,1-1.58,2.58,7.14,7.14,0,0,1-2.33,1.71,6.79,6.79,0,0,1-2.87.62,6.31,6.31,0,0,1-2.51-.49,5.94,5.94,0,0,1-2-1.34V29.6h-4V7.27h3.78V8.9a6.56,6.56,0,0,1,2.1-1.46,6.49,6.49,0,0,1,2.62-.52,6.78,6.78,0,0,1,2.87.61,7.26,7.26,0,0,1,2.33,1.7,8.2,8.2,0,0,1,1.58,2.54A8.58,8.58,0,0,1,67.65,15Zm-4,0a4.67,4.67,0,0,0-.32-1.73,4.41,4.41,0,0,0-.86-1.38,3.91,3.91,0,0,0-1.26-.91,3.68,3.68,0,0,0-1.54-.34,3.5,3.5,0,0,0-1.53.35,4,4,0,0,0-1.27.93,4.41,4.41,0,0,0-.86,1.38,4.55,4.55,0,0,0-.31,1.7,4.67,4.67,0,0,0,.31,1.71,4.4,4.4,0,0,0,.86,1.4,3.82,3.82,0,0,0,1.27.95,3.68,3.68,0,0,0,3.07,0,3.69,3.69,0,0,0,1.26-.93,4.46,4.46,0,0,0,.86-1.39A4.7,4.7,0,0,0,63.69,15Z"/><path class="cls-2" d="M83.91,20l-.15.21a6.84,6.84,0,0,1-2.61,2.11,8.64,8.64,0,0,1-3.66.75,7.55,7.55,0,0,1-3.06-.63,8.12,8.12,0,0,1-4.23-4.29A7.91,7.91,0,0,1,69.57,15a8,8,0,0,1,.63-3.17,8.13,8.13,0,0,1,4.23-4.32,7.4,7.4,0,0,1,3.06-.64,8.12,8.12,0,0,1,3.22.64,7.06,7.06,0,0,1,2.6,1.89,8.17,8.17,0,0,1,1.62,3.05,10.73,10.73,0,0,1,.33,4.08H73.59A4.12,4.12,0,0,0,75,18.8a3.86,3.86,0,0,0,2.45.8,4.4,4.4,0,0,0,1.72-.34,2.91,2.91,0,0,0,1.34-1.12Zm-2.58-6.71a3.86,3.86,0,0,0-1.4-2.15,3.93,3.93,0,0,0-2.47-.8,3.75,3.75,0,0,0-2.37.8,4.2,4.2,0,0,0-1.44,2.15Z"/><path class="cls-2" d="M96.9,10.81a7,7,0,0,0-2.16,0,3.15,3.15,0,0,0-2.46,2.46,9.13,9.13,0,0,0-.18,1.82v7.59h-4V7.27h3.78V8.81a4.87,4.87,0,0,1,2.26-1.62A5.32,5.32,0,0,1,96.9,7Z"/><path class="cls-2" d="M116,22.73h-4.08l-2.79-10.24-2.79,10.24h-4.11L97.44,7.27h4.2l2.7,10.8,2.82-10.8h4l2.82,10.8,2.7-10.8h4.2Z"/><path class="cls-2" d="M133.35,22.73a6.2,6.2,0,0,1-.39-1.45,5.47,5.47,0,0,1-2,1.28,7.55,7.55,0,0,1-2.79.46,8.73,8.73,0,0,1-2.36-.31,6.4,6.4,0,0,1-2-.93,4.66,4.66,0,0,1-1.4-1.56A4.47,4.47,0,0,1,122,18a4.15,4.15,0,0,1,.51-2.15,4,4,0,0,1,1.38-1.38,6.69,6.69,0,0,1,2-.78,19.37,19.37,0,0,1,2.43-.37c.64-.07,1.23-.13,1.77-.21a8.21,8.21,0,0,0,1.39-.32,2.43,2.43,0,0,0,.92-.5,1,1,0,0,0,.33-.78,1.25,1.25,0,0,0-.74-1,4.1,4.1,0,0,0-2.08-.44,4.31,4.31,0,0,0-1.05.13,4.61,4.61,0,0,0-1,.34,3,3,0,0,0-.81.57,1.93,1.93,0,0,0-.49.83c-.2,0-.47-.1-.8-.19s-.67-.16-1-.25l-1.05-.27-.87-.23a4.92,4.92,0,0,1,.94-1.64A6.61,6.61,0,0,1,125.25,8a7.49,7.49,0,0,1,2-.85,9.77,9.77,0,0,1,2.49-.3,10.34,10.34,0,0,1,2.67.3,6.39,6.39,0,0,1,1.86.79,4.92,4.92,0,0,1,1.2,1.09,5.15,5.15,0,0,1,.67,1.19,4.67,4.67,0,0,1,.29,1.09,7.64,7.64,0,0,1,.06.82v8a6.66,6.66,0,0,0,.15,1.31,10.63,10.63,0,0,0,.3,1.21Zm-.51-7.45a4.72,4.72,0,0,1-1.59.64,20.38,20.38,0,0,1-2.18.35,8.05,8.05,0,0,0-2.32.53,1.29,1.29,0,0,0-.84,1.25,1.2,1.2,0,0,0,.7,1.06,3.88,3.88,0,0,0,1.92.41,8.12,8.12,0,0,0,1.68-.16,4.1,4.1,0,0,0,1.38-.49,2.62,2.62,0,0,0,.91-.87,2.33,2.33,0,0,0,.34-1.27Z"/><path class="cls-2" d="M144.45,22.73h-4V.4h4Z"/><path class="cls-2" d="M155.46,22.69a7.61,7.61,0,0,1-3-.21,5,5,0,0,1-2.16-1.25A5.65,5.65,0,0,1,149,19.08a8.54,8.54,0,0,1-.45-2.86V10.78h-1.86V7.27h1.86V.4h4V7.27h2.79v3.51h-2.79v5.46a2.94,2.94,0,0,0,.73,2.28,3,3,0,0,0,2.24.58Z"/><path class="cls-2" d="M171.27,20l-.15.21a6.84,6.84,0,0,1-2.61,2.11,8.64,8.64,0,0,1-3.66.75,7.55,7.55,0,0,1-3.06-.63,8.12,8.12,0,0,1-4.23-4.29,7.91,7.91,0,0,1-.63-3.15,8,8,0,0,1,.63-3.17,8.13,8.13,0,0,1,4.23-4.32,7.4,7.4,0,0,1,3.06-.64,8.12,8.12,0,0,1,3.22.64,7.06,7.06,0,0,1,2.6,1.89,8.17,8.17,0,0,1,1.62,3.05,10.73,10.73,0,0,1,.33,4.08H161a4.12,4.12,0,0,0,1.42,2.25,3.86,3.86,0,0,0,2.45.8,4.4,4.4,0,0,0,1.72-.34,3,3,0,0,0,1.34-1.12Zm-2.58-6.71a3.86,3.86,0,0,0-1.4-2.15,3.93,3.93,0,0,0-2.47-.8,3.75,3.75,0,0,0-2.37.8A4.2,4.2,0,0,0,161,13.31Z"/><path class="cls-2" d="M184.25,10.81a7,7,0,0,0-2.16,0,3.08,3.08,0,0,0-1.64.91,3,3,0,0,0-.81,1.55,8.45,8.45,0,0,0-.19,1.82v7.59h-4V7.27h3.78V8.81a4.89,4.89,0,0,1,2.27-1.62A5.28,5.28,0,0,1,184.25,7Z"/></g><g class="cls-1"><path class="cls-2" d="M189.06,22.88a2.8,2.8,0,0,1-2.77-2.78,2.76,2.76,0,0,1,.82-2,2.61,2.61,0,0,1,1.95-.84,2.85,2.85,0,0,1,2.85,2.85,2.66,2.66,0,0,1-.83,2A2.81,2.81,0,0,1,189.06,22.88Z"/></g></g></svg>